<svg xmlns="http://www.w3.org/2000/svg" width="316.04" height="397.36" viewBox="0 0 316.04 397.36">
    <title>Illustration Tokens</title>
  <g id="header_illustration" transform="translate(-1076.169 -182.273)">
    <g id="stosik" transform="translate(10 -30.914)">
      <path id="Path_290926" data-name="Path 290926" d="M290.9,303.341c-68.556-.975-123.842-24.42-123.417-52.445,0-3.095-2.332-20.69-.975-23.488,10.811-23.488,64.867-26.244,125.834-25.438,59.992.89,110.232,0,121.594,23.191,1.653,3.307,1.908,25.862,1.865,29.211C415.417,282.439,359.495,304.231,290.9,303.341Z" transform="translate(919.871 307.18)" fill="#7019a7"/>
      <ellipse id="Ellipse_259" data-name="Ellipse 259" cx="50.664" cy="124.181" rx="50.664" ry="124.181" transform="matrix(0.014, -1, 1, 0.014, 1085.732, 585.381)" fill="#23dcbb"/>
      <ellipse id="Ellipse_260" data-name="Ellipse 260" cx="43.16" cy="105.78" rx="43.16" ry="105.78" transform="matrix(0.014, -1, 1, 0.014, 1104.239, 578.14)" fill="#7019a7"/>
      <path id="Path_290928" data-name="Path 290928" d="M286.292,291.551c-68.556-.975-123.841-24.42-123.417-52.445,0-3.095-2.332-20.69-1.018-23.488,10.854-23.488,64.91-26.244,125.876-25.438,59.992.89,110.232,0,121.594,23.191,1.653,3.307,1.908,25.862,1.865,29.211C410.812,270.353,354.89,292.314,286.292,291.551Z" transform="translate(904.888 268.984)" fill="#7019a7"/>
      <ellipse id="Ellipse_261" data-name="Ellipse 261" cx="50.664" cy="124.181" rx="50.664" ry="124.181" transform="matrix(0.014, -1, 1, 0.014, 1066.169, 535.184)" fill="#23dcbb"/>
      <ellipse id="Ellipse_262" data-name="Ellipse 262" cx="43.16" cy="105.78" rx="43.16" ry="105.78" transform="matrix(0.014, -1, 1, 0.014, 1084.672, 527.943)" fill="#7019a7"/>
      <path id="Path_290930" data-name="Path 290930" d="M299.939,285.881c-68.6-1.018-123.884-24.463-123.46-52.445,0-3.095-2.332-20.69-.975-23.488,10.811-23.488,64.91-26.244,125.876-25.438,59.992.89,110.232,0,121.552,23.191,1.653,3.307,1.908,25.9,1.866,29.254C424.459,264.937,368.495,286.856,299.939,285.881Z" transform="translate(949.028 250.615)" fill="#7019a7"/>
      <ellipse id="Ellipse_263" data-name="Ellipse 263" cx="50.664" cy="124.181" rx="50.664" ry="124.181" transform="matrix(0.014, -1, 1, 0.014, 1123.934, 511.361)" fill="#23dcbb"/>
      <ellipse id="Ellipse_264" data-name="Ellipse 264" cx="43.16" cy="105.78" rx="43.16" ry="105.78" transform="matrix(0.014, -1, 1, 0.014, 1142.442, 504.122)" fill="#7019a7"/>
      <ellipse id="Ellipse_266" data-name="Ellipse 266" cx="69" cy="8" rx="69" ry="8" transform="translate(1188 454.914)" fill="#905bff" opacity="0.223"/>
    </g>
    <g id="_2" data-name="2" transform="translate(1143.679 182.273)">
      <circle id="Ellipse_265" data-name="Ellipse 265" cx="119" cy="119" r="119" transform="translate(4.321 9.727)" fill="#f5f2f9"/>
      <path id="Path_289051" data-name="Path 289051" d="M514.953,49.482A124.265,124.265,0,1,0,639.218,173.747,124.266,124.266,0,0,0,514.953,49.482Zm21.283,15.446a109.574,109.574,0,0,1,40.614,16.823l-7.917,11.705a96.164,96.164,0,0,0-35.475-14.675Zm-42.564,0L496.349,78.8a96.2,96.2,0,0,0-35.461,14.713l-7.832-11.763A109.584,109.584,0,0,1,493.673,64.928Zm-70.713,46.92,11.7,7.919a96.207,96.207,0,0,0-14.675,35.475l-13.854-2.778A109.611,109.611,0,0,1,422.959,111.848Zm0,123.8a109.566,109.566,0,0,1-16.823-40.616l13.874-2.674a96.2,96.2,0,0,0,14.713,35.459Zm70.713,46.921a109.569,109.569,0,0,1-40.616-16.825l7.919-11.7a96.187,96.187,0,0,0,35.475,14.677Zm42.566,0-2.677-13.874a96.147,96.147,0,0,0,35.461-14.713l7.832,11.763A109.544,109.544,0,0,1,536.236,282.566Zm70.711-170.718a109.494,109.494,0,0,1,16.823,40.616L609.9,155.141a96.178,96.178,0,0,0-14.713-35.459Zm-11.7,115.879a96.237,96.237,0,0,0,14.675-35.477l13.852,2.78a109.568,109.568,0,0,1-16.823,40.614Z" transform="translate(-390.688 -49.482)" fill="#7019a7"/>
      <path id="Path_289052" data-name="Path 289052" d="M515.132,49.486c-.06,0-.12,0-.179,0a124.265,124.265,0,1,0,0,248.529c.06,0,.119,0,.179,0Zm-21.46,15.442L496.349,78.8a96.2,96.2,0,0,0-35.461,14.713l-7.832-11.763A109.584,109.584,0,0,1,493.673,64.928Zm-70.713,46.92,11.7,7.919a96.207,96.207,0,0,0-14.675,35.475l-13.854-2.778A109.611,109.611,0,0,1,422.959,111.848Zm0,123.8a109.566,109.566,0,0,1-16.823-40.616l13.874-2.674a96.2,96.2,0,0,0,14.713,35.459Zm70.713,46.921a109.569,109.569,0,0,1-40.616-16.825l7.919-11.7a96.15,96.15,0,0,0,35.475,14.675Z" transform="translate(-390.688 -49.482)" fill="#905bff"/>
      <path id="Path_289053" data-name="Path 289053" d="M478.324,106.61A14.676,14.676,0,1,1,463.65,91.917,14.683,14.683,0,0,1,478.324,106.61Z" transform="translate(-298.082 17.94)" fill="#63fde9"/>
      <path id="Path_289054" data-name="Path 289054" d="M421.9,182.1V77.363h44.824c23.694,0,39.493,9.382,47.777,23.736l-25.4,13.373c-3.659-7.383-10.8-12.421-22.375-12.421H451.19v55.064h15.538c11.673,0,18.628-5.412,22.235-12.945l25.368,13.716c-8.244,14.477-23.838,24.218-47.6,24.218Z" transform="translate(-341.091 -5.185)" fill="#1bd7b6"/>
    </g>
  </g>
</svg>
